<mxfile host="app.diagrams.net" modified="2023-11-02T15:00:19.961Z" agent="Mozilla/5.0 (Macintosh; Intel Mac OS X 10_15_7) AppleWebKit/537.36 (KHTML, like Gecko) Chrome/118.0.0.0 Safari/537.36" etag="2V_wjOiMFIicWK4ezbMG" version="22.0.8" type="github">
  <diagram id="3228e29e-7158-1315-38df-8450db1d8a1d" name="Page-1">
    <mxGraphModel dx="900" dy="625" grid="0" gridSize="10" guides="1" tooltips="1" connect="1" arrows="1" fold="1" page="1" pageScale="1" pageWidth="800" pageHeight="550" background="#EFF1F3" math="0" shadow="0">
      <root>
        <mxCell id="0" />
        <mxCell id="1" parent="0" />
        <mxCell id="BZtyihOMIc5ssDVvATIx-4" value="&lt;font style=&quot;font-size: 23px;&quot;&gt;应用层&lt;/font&gt;" style="rounded=1;whiteSpace=wrap;html=1;fillColor=#4a909b;strokeColor=none;fontColor=#FFFFFF;" parent="1" vertex="1">
          <mxGeometry x="148" y="691" width="184" height="60" as="geometry" />
        </mxCell>
        <mxCell id="QBakC-ykdxP9H4MGca09-1" value="&lt;font style=&quot;font-size: 23px;&quot;&gt;传输层&lt;/font&gt;" style="rounded=1;whiteSpace=wrap;html=1;fillColor=#67AB9F;strokeColor=none;fontColor=#FFFFFF;" vertex="1" parent="1">
          <mxGeometry x="148" y="795" width="184" height="60" as="geometry" />
        </mxCell>
        <mxCell id="QBakC-ykdxP9H4MGca09-2" value="&lt;font style=&quot;font-size: 23px;&quot;&gt;网络层&lt;/font&gt;" style="rounded=1;whiteSpace=wrap;html=1;fillColor=#9AC7BF;strokeColor=none;fontColor=#FFFFFF;" vertex="1" parent="1">
          <mxGeometry x="148" y="860" width="184" height="60" as="geometry" />
        </mxCell>
        <mxCell id="QBakC-ykdxP9H4MGca09-4" value="&lt;font style=&quot;font-size: 23px;&quot;&gt;数据链路层&lt;/font&gt;" style="rounded=1;whiteSpace=wrap;html=1;fillColor=#F19C99;strokeColor=none;fontColor=#FFFFFF;" vertex="1" parent="1">
          <mxGeometry x="148" y="925" width="184" height="60" as="geometry" />
        </mxCell>
        <mxCell id="QBakC-ykdxP9H4MGca09-5" value="&lt;font style=&quot;font-size: 23px;&quot;&gt;物理层&lt;/font&gt;" style="rounded=1;whiteSpace=wrap;html=1;fillColor=#F19C99;strokeColor=none;fontColor=#FFFFFF;" vertex="1" parent="1">
          <mxGeometry x="148" y="990" width="184" height="60" as="geometry" />
        </mxCell>
        <mxCell id="QBakC-ykdxP9H4MGca09-12" style="edgeStyle=orthogonalEdgeStyle;rounded=1;orthogonalLoop=1;jettySize=auto;html=1;exitX=0.5;exitY=1;exitDx=0;exitDy=0;dashed=1;strokeColor=#4D4D4D;strokeWidth=2;" edge="1" parent="1" source="QBakC-ykdxP9H4MGca09-6" target="QBakC-ykdxP9H4MGca09-8">
          <mxGeometry relative="1" as="geometry" />
        </mxCell>
        <mxCell id="QBakC-ykdxP9H4MGca09-13" style="edgeStyle=orthogonalEdgeStyle;rounded=1;orthogonalLoop=1;jettySize=auto;html=1;exitX=0.5;exitY=1;exitDx=0;exitDy=0;entryX=0.5;entryY=0;entryDx=0;entryDy=0;dashed=1;strokeColor=#4D4D4D;strokeWidth=2;" edge="1" parent="1" source="QBakC-ykdxP9H4MGca09-6" target="QBakC-ykdxP9H4MGca09-10">
          <mxGeometry relative="1" as="geometry" />
        </mxCell>
        <mxCell id="QBakC-ykdxP9H4MGca09-6" value="&lt;font style=&quot;font-size: 23px;&quot;&gt;大数据&lt;/font&gt;" style="rounded=1;whiteSpace=wrap;html=1;fillColor=#4a909b;strokeColor=default;fontColor=#FFFFFF;" vertex="1" parent="1">
          <mxGeometry x="458.5" y="691" width="183.5" height="60" as="geometry" />
        </mxCell>
        <mxCell id="QBakC-ykdxP9H4MGca09-7" value="&lt;font color=&quot;#4d4d4d&quot; style=&quot;font-size: 31px;&quot;&gt;数据包长度 &amp;gt; MSS&lt;/font&gt;" style="text;html=1;strokeColor=none;fillColor=none;align=center;verticalAlign=middle;whiteSpace=wrap;rounded=0;" vertex="1" parent="1">
          <mxGeometry x="412" y="605" width="286" height="30" as="geometry" />
        </mxCell>
        <mxCell id="QBakC-ykdxP9H4MGca09-8" value="&lt;font style=&quot;font-size: 23px;&quot;&gt;小数据&lt;/font&gt;" style="rounded=1;whiteSpace=wrap;html=1;fillColor=#67AB9F;strokeColor=default;fontColor=#FFFFFF;" vertex="1" parent="1">
          <mxGeometry x="458.5" y="795" width="91.5" height="60" as="geometry" />
        </mxCell>
        <mxCell id="QBakC-ykdxP9H4MGca09-10" value="&lt;font style=&quot;font-size: 23px;&quot;&gt;小数据&lt;/font&gt;" style="rounded=1;whiteSpace=wrap;html=1;fillColor=#67AB9F;strokeColor=default;fontColor=#FFFFFF;" vertex="1" parent="1">
          <mxGeometry x="550" y="795" width="91.5" height="60" as="geometry" />
        </mxCell>
        <mxCell id="QBakC-ykdxP9H4MGca09-14" value="" style="shape=curlyBracket;whiteSpace=wrap;html=1;rounded=1;flipH=1;labelPosition=right;verticalLabelPosition=middle;align=left;verticalAlign=middle;rotation=-90;" vertex="1" parent="1">
          <mxGeometry x="540.25" y="577" width="20" height="184" as="geometry" />
        </mxCell>
      </root>
    </mxGraphModel>
  </diagram>
</mxfile>
